<?xml version="1.0" standalone="no"?>
<!DOCTYPE svg PUBLIC "-//W3C//DTD SVG 20010904//EN"
 "http://www.w3.org/TR/2001/REC-SVG-20010904/DTD/svg10.dtd">
<svg version="1.0" xmlns="http://www.w3.org/2000/svg"
 width="152.000000pt" height="902.000000pt" viewBox="0 0 152.000000 902.000000"
 preserveAspectRatio="xMidYMid meet">
<metadata>
Created by potrace 1.16, written by Peter Selinger 2001-2019
</metadata>
<g transform="translate(0.000000,902.000000) scale(0.100000,-0.100000)"
fill="black" fill-opacity="0.30" stroke="none">
<path d="M920 8994 c-118 -43 -178 -114 -288 -344 -84 -175 -121 -225 -178
-236 -82 -15 -135 59 -142 201 -6 121 13 195 86 338 2 4 -62 7 -141 7 l-145 0
-11 -33 c-42 -125 -53 -348 -25 -485 52 -254 230 -393 454 -352 85 15 151 52
211 118 46 50 69 92 166 302 63 135 121 188 192 174 138 -28 147 -335 15 -531
l-42 -63 154 0 155 0 20 45 c56 126 71 417 30 570 -36 136 -104 225 -210 276
-62 30 -233 38 -301 13z"/>
<path d="M80 7440 l0 -540 130 0 130 0 0 190 0 190 545 0 545 0 0 160 0 160
-545 0 -545 0 0 190 0 190 -130 0 -130 0 0 -540z"/>
<path d="M107 6793 c-3 -5 -13 -39 -23 -78 -14 -53 -18 -109 -18 -230 -1 -186
8 -232 69 -360 103 -215 293 -344 557 -376 301 -36 578 92 690 321 59 120 72
184 72 350 0 146 -16 254 -51 343 l-15 37 -144 0 -144 0 19 -37 c53 -105 80
-267 62 -369 -33 -179 -151 -289 -340 -316 -216 -32 -416 69 -481 240 -46 119
-35 301 25 430 l24 52 -149 0 c-82 0 -151 -3 -153 -7z"/>
<path d="M1180 5370 l0 -250 -150 0 -150 0 0 220 0 220 -125 0 -125 0 0 -220
0 -220 -145 0 -145 0 0 235 0 235 -130 0 -130 0 0 -390 0 -390 675 0 675 0 0
405 0 405 -125 0 -125 0 0 -250z"/>
<path d="M80 4366 l0 -155 463 -4 c484 -3 501 -5 568 -50 78 -52 96 -160 46
-270 l-26 -58 147 3 146 3 13 45 c23 76 27 187 10 267 -39 181 -146 294 -333
349 -52 15 -118 18 -546 21 l-488 4 0 -155z"/>
<path d="M665 3749 c-176 -13 -308 -71 -426 -189 -133 -132 -185 -275 -176
-490 7 -195 69 -334 202 -459 72 -67 190 -130 295 -158 92 -24 330 -25 420 0
226 61 399 231 455 446 51 196 18 410 -87 567 -138 206 -378 306 -683 283z
m289 -350 c74 -24 147 -76 180 -126 36 -54 60 -155 52 -217 -24 -185 -183
-296 -426 -296 -193 0 -331 68 -398 194 -24 45 -27 62 -27 146 0 114 17 153
95 223 85 77 209 110 374 101 48 -3 116 -14 150 -25z"/>
<path d="M1194 2266 c-241 -156 -301 -201 -341 -259 l-26 -37 -33 69 c-42 86
-120 160 -202 192 -66 26 -190 31 -259 11 -101 -30 -182 -114 -217 -224 -29
-95 -36 -173 -36 -460 l0 -278 675 0 675 0 0 155 0 155 -255 0 -255 0 0 50 c0
100 30 128 309 295 l200 120 1 178 c0 97 -3 177 -7 177 -5 -1 -108 -65 -229
-144z m-636 -351 c89 -38 121 -100 122 -232 l0 -93 -180 0 -180 0 0 103 c0
109 16 163 58 200 41 37 120 46 180 22z"/>
<path d="M385 1076 c-146 -35 -234 -126 -282 -289 -12 -40 -17 -123 -20 -369
l-5 -318 676 0 676 0 0 155 0 155 -229 0 -229 0 -5 148 c-5 154 -15 197 -63
295 -31 64 -107 146 -168 182 -87 51 -237 69 -351 41z m241 -335 c76 -34 104
-101 104 -243 l0 -88 -207 0 -206 0 6 103 c9 144 35 198 112 233 44 20 142 17
191 -5z"/>
</g>
</svg>
